# xmcd
#
# Track frame offsets: 
#        150
#        12387
#        26177
#        40727
#        59822
#        82587
#        97467
#        114932
#        129930
#        143905
#        159152
#        173547
#        187197
#        201342
#        217050
#
# Disc length: 3182 seconds
#
# Revision: 15
# Processed by: cddbd v1.5.2PL0 Copyright (c) Steve Scherf et al.
# Submitted via: ExactAudioCopyFreeDBPlugin 1.0
#
DISCID=d30c6c0f
DTITLE=Al Green - Greatest Hits
DYEAR=1995
DGENRE=Soul
TTITLE0=Tired of Being Alone
TTITLE1=Call Me (Come Back Home)
TTITLE2=I'm Still in Love with You
TTITLE3=Here I Am (Come and Take Me)
TTITLE4=Love and Happiness
TTITLE5=Let's Stay Together
TTITLE6=I Can't Get Next to You
TTITLE7=You Ought to Be with Me
TTITLE8=Look What You Done for Me
TTITLE9=Let's Get Married
TTITLE10=Livin' for You
TTITLE11=Sha La La (Make Me Happy)
TTITLE12=L-O-V-E (Love)
TTITLE13=Full of Fire
TTITLE14=Belle
EXTD=YEAR: 1975
EXTT0=
EXTT1=
EXTT2=
EXTT3=
EXTT4=
EXTT5=
EXTT6=
EXTT7=
EXTT8=
EXTT9=
EXTT10=
EXTT11=
EXTT12=
EXTT13=
EXTT14=
PLAYORDER=
